<svg data-v-0dd9719b="" version="1.0" xmlns="http://www.w3.org/2000/svg" xmlns:xlink="http://www.w3.org/1999/xlink" width="100%" height="100%" viewBox="0 0 340.000000 250.000000" preserveAspectRatio="xMidYMid meet" color-interpolation-filters="sRGB" style="margin: auto;"> <rect data-v-0dd9719b="" x="0" y="0" width="100%" height="100%" fill="#ffffff" fill-opacity="1" class="background"></rect> <rect data-v-0dd9719b="" x="0" y="0" width="100%" height="100%" fill="url(#watermark)" fill-opacity="1" class="watermarklayer"></rect> <g data-v-0dd9719b="" fill="#2aa1a6" class="icon-text-wrapper icon-svg-group iconsvg" transform="translate(72.82473754882812,90.35796737670898)"><g class="iconsvg-imagesvg" transform="translate(0,0)"><g><rect fill="#2aa1a6" fill-opacity="0" stroke-width="2" x="0" y="0" width="60" height="69.28406466512702" class="image-rect"></rect> <svg filter="url(#colors6733590619)" x="0" y="0" width="60" height="69.28406466512702" filtersec="colorsf2026375117" class="image-svg-svg primary" style="overflow: visible;"><svg xmlns="http://www.w3.org/2000/svg" viewBox="0 0 86.5999984741211 100"><path d="M86.6 25L43.3 0 14.81 16.45v.71-.71L0 25v50l43.3 25 18.3-10.56c0-1.68-.06-47.6-.06-50l-13.47-7.82c0 43.18 0 33.1.06 48.27l-4.83 2.79-5.21-3c0-2-.06-45.12-.07-47.76L25 39.43c0 9.09-.07 32.64-.07 32.64L15 66.34V33.66l23-13.28 5.29-3.06 28.28 16.32v50L86.6 75z" fill="#333"></path></svg></svg> <defs><filter id="colors6733590619"><feColorMatrix type="matrix" values="0 0 0 0 0.32421875  0 0 0 0 0.27734375  0 0 0 0 0.265625  0 0 0 1 0" class="icon-fecolormatrix"></feColorMatrix></filter> <filter id="colorsf2026375117"><feColorMatrix type="matrix" values="0 0 0 0 0.99609375  0 0 0 0 0.99609375  0 0 0 0 0.99609375  0 0 0 1 0" class="icon-fecolormatrix"></feColorMatrix></filter> <filter id="colorsb840948270"><feColorMatrix type="matrix" values="0 0 0 0 0  0 0 0 0 0  0 0 0 0 0  0 0 0 1 0" class="icon-fecolormatrix"></feColorMatrix></filter></defs></g></g> <g transform="translate(67,12.237659454345703)"><g data-gra="path-name" fill-rule="" class="tp-name iconsvg-namesvg"><g transform="scale(1)"><g><path d="M7.03 0Q7.32 0 7.4-0.26L7.4-0.26 11.62-15.56 15.8 0 17.78 0Q18.06 0 18.14-0.28L18.14-0.28 22.88-18.04 20.79-18.04 17.24-3.07 13.27-18.04 10.23-18.04 6.39-3.07 2.96-18.04 0.33-18.04 4.97 0 7.03 0ZM25.64 0.03L27.44-5.44 35.43-5.44 37.34 0.03 39.81 0.03 32.57-18.01 29.92-18.01 23.06 0.03 25.64 0.03ZM31.41-15.8L34.74-7.37 28.09-7.37 31.41-15.8ZM42.88 0Q43.03 0 43.15-0.12 43.26-0.23 43.26-0.39L43.26-0.39 43.26-8.27 51.1-8.27 51.1 0 53.29 0Q53.44 0 53.56-0.12 53.67-0.23 53.67-0.39L53.67-0.39 53.67-18.04 51.1-18.04 51.1-10.38 43.26-10.38 43.26-18.04 40.69-18.04 40.69 0 42.88 0ZM75.55 0Q75.71 0 75.82-0.12 75.94-0.23 75.94-0.39L75.94-0.39 75.94-2.04 66.97-2.04 66.97-18.04 64.34-18.04 64.34 0 75.55 0ZM91.73-7.73Q91.73-4.87 90.79-3.45 89.85-2.04 87.33-2.04L87.33-2.04Q84.78-2.04 83.93-3.5 83.08-4.97 83.08-7.73L83.08-7.73 83.08-18.04 80.58-18.04 80.58-7.73Q80.58-3.92 82.08-1.96 83.59 0 87.33 0L87.33 0Q90.96 0 92.47-2.15 93.98-4.3 93.98-7.73L93.98-7.73 93.98-18.04 91.73-18.04 91.73-7.73ZM109.82 0Q109.98 0 110.09-0.12 110.21-0.23 110.21-0.39L110.21-0.39 110.21-2.14 99.95-2.14 99.95-8.27 109.28-8.27Q109.44-8.27 109.55-8.39 109.67-8.5 109.67-8.66L109.67-8.66 109.67-10.38 99.95-10.38 99.9-15.92 109.41-15.92Q109.57-15.92 109.68-16.04 109.8-16.16 109.8-16.31L109.8-16.31 109.8-18.04 97.33-18.04 97.33 0 109.82 0ZM115.96 0Q116.11 0 116.23-0.12 116.34-0.23 116.34-0.39L116.34-0.39 116.45-13.97 125.31 0 127.29 0Q127.45 0 127.56-0.12 127.68-0.23 127.68-0.39L127.68-0.39 127.68-18.04 125.05-18.04 125.05-3.97 116.19-18.04 113.82-18.04 113.82 0 115.96 0Z" transform="translate(-0.33000001311302185, 18.040000915527344)"></path></g> <!----> <!----> <!----> <!----> <!----> <!----> <g data-gra="path-name-1" fill="#2aa1a6" transform="translate(0,21.07000160217285)"><g transform="scale(1.00079)"><path d="M16.28 0Q16.48 0 16.63-0.15 16.78-0.3 16.78-0.5L16.78-0.5 16.78-2.65 5.1-2.65 5.1-23.49 1.68-23.49 1.68 0 16.28 0ZM37.35-10.07Q37.35-6.34 36.12-4.5 34.9-2.65 31.61-2.65L31.61-2.65Q28.29-2.65 27.18-4.56 26.07-6.48 26.07-10.07L26.07-10.07 26.07-23.49 22.82-23.49 22.82-10.07Q22.82-5.1 24.78-2.55 26.74 0 31.61 0L31.61 0Q36.34 0 38.31-2.8 40.27-5.6 40.27-10.07L40.27-10.07 40.27-23.49 37.35-23.49 37.35-10.07ZM46.88 0Q47.15 0 47.27-0.12 47.38-0.23 47.38-0.5L47.38-0.5 47.38-20 54.03 0 56.85 0 63.49-19.56 63.49 0 66.41 0Q66.68 0 66.8-0.12 66.91-0.23 66.91-0.5L66.91-0.5 66.91-23.49 62.58-23.49Q61.78-21.14 59.53-14.87L59.53-14.87Q56.88-7.45 55.57-3.36L55.57-3.36Q54.19-7.82 52.65-12.3 51.11-16.78 48.72-23.49L48.72-23.49 43.96-23.49 43.96 0 46.88 0ZM78.72 0.23Q82.42 0.23 84.9-1.36 87.38-2.95 87.38-6.64L87.38-6.64Q87.38-8.72 86.12-10.07 84.87-11.41 82.85-12.01L82.85-12.01Q84.26-12.79 85.27-14.21 86.28-15.64 86.28-17.28L86.28-17.28Q86.28-20.77 83.74-22.1 81.21-23.42 77.72-23.42L77.72-23.42 69.93-23.42 69.93 0.23 78.72 0.23ZM73.19-20.64L77.65-20.64Q79.97-20.64 81.51-19.95 83.05-19.26 83.05-17.55L83.05-17.55Q83.05-15.23 81.61-14.19 80.17-13.15 77.99-13.15L77.99-13.15 73.19-13.15 73.19-20.64ZM73.19-10.37L78.32-10.37Q80.1-10.37 81.28-10.15 82.45-9.93 83.22-9.11 83.99-8.29 83.99-6.64L83.99-6.64Q83.99-4.26 82.57-3.41 81.14-2.55 78.72-2.55L78.72-2.55 73.19-2.55 73.19-10.37ZM106.68 0Q106.88 0 107.03-0.15 107.18-0.3 107.18-0.5L107.18-0.5 107.18-2.79 93.83-2.79 93.83-10.77 105.97-10.77Q106.17-10.77 106.33-10.92 106.48-11.07 106.48-11.28L106.48-11.28 106.48-13.52 93.83-13.52 93.76-20.74 106.14-20.74Q106.34-20.74 106.49-20.89 106.64-21.04 106.64-21.24L106.64-21.24 106.64-23.49 90.4-23.49 90.4 0 106.68 0ZM114.8-20.7L120.2-20.7Q122.79-20.7 124.16-19.88 125.54-19.06 125.54-16.64L125.54-16.64Q125.54-14.3 124.16-13.44 122.79-12.58 120.2-12.58L120.2-12.58 114.8-12.58 114.8-20.7ZM122.45-10.07Q128.93-10.81 128.93-16.64L128.93-16.64Q128.93-20.57 126.48-22.01L126.48-22.01Q123.99-23.49 119.93-23.49L119.93-23.49 111.54-23.49 111.54 0 114.3 0Q114.5 0 114.65-0.15 114.8-0.3 114.8-0.5L114.8-0.5 114.8-9.93 119.23-9.93 125.23 0 128.59 0 122.45-10.07Z" transform="translate(-1.6800000667572021, 23.489999771118164)"></path></g></g></g></g> <!----></g></g><defs v-gra="od"></defs></svg>